<?xml version="1.0" encoding="utf-8"?>
<!-- Generator: Adobe Illustrator 17.0.0, SVG Export Plug-In . SVG Version: 6.00 Build 0)  -->
<!DOCTYPE svg PUBLIC "-//W3C//DTD SVG 1.1//EN" "http://www.w3.org/Graphics/SVG/1.1/DTD/svg11.dtd">
<svg version="1.1" id="Слой_1" xmlns="http://www.w3.org/2000/svg" xmlns:xlink="http://www.w3.org/1999/xlink" x="0px" y="0px"
	 width="28.35px" height="28.35px" viewBox="0 0 28.35 28.35" enable-background="new 0 0 28.35 28.35" xml:space="preserve">
<path fill-rule="evenodd" clip-rule="evenodd" fill="#BE8896" d="M1,7.107L1,7.107V4.743h2.364h2.364V2.379V0.015h2.364h11.821
	h2.364v2.364v2.364h2.364h2.364v2.364H1L1,7.107z M8.092,4.743h11.821V2.379H8.092V4.743z M24.642,28.385L24.642,28.385h-2.364
	H5.728H3.364l0,0H24.642z"/>
<path fill-rule="evenodd" clip-rule="evenodd" fill="#BE8896" d="M5.492,4.743h17.022c1.175,0,2.128,1.058,2.128,2.364v18.913
	c0,1.306-0.953,2.364-2.128,2.364H5.492c-1.175,0-2.128-1.058-2.128-2.364V7.107C3.364,5.802,4.317,4.743,5.492,4.743z"/>
<path fill-rule="evenodd" clip-rule="evenodd" fill="#FFFFFF" d="M8.092,9.472h2.364v14.185H8.092V9.472z"/>
<path fill-rule="evenodd" clip-rule="evenodd" fill="#FFFFFF" d="M12.821,9.472h2.364v14.185h-2.364V9.472z"/>
<path fill-rule="evenodd" clip-rule="evenodd" fill="#FFFFFF" d="M17.549,9.472h2.364v14.185h-2.364V9.472z"/>
</svg>
